# xmcd
#
# Track frame offsets:
#	150
#	9411
#	22936
#	29979
#	42022
#	58195
#	67306
#	79543
#	91355
#	100274
#	113508
#	122592
#	132320
#	140723
#	151081
#	164021
#	172814
#	184881
#	200136
#	211250
#	221281
#
# Disc length: 3064 seconds
#
# Revision: 1
# Processed by: cddbd v1.5.2PL0 Copyright (c) Steve Scherf et al.
# Submitted via: audiograbber 1.83.01
#
DISCID=270bf615
DTITLE=The Greatest Country Music Recordings Of All Time - Record 21 and 22
DYEAR=1900
DGENRE=
TTITLE0=Chet Atkins - Kentucky Derby
TTITLE1=Jerry Byrd - Steelin' The Blues
TTITLE2=Doc Watson - Black Mountain Blues
TTITLE3=Pete Drake - Forever
TTITLE4=Chet Atkins and Merle Travis - I'll See You In My Dreams
TTITLE5=Merle Travis - Blue Smoke
TTITLE6=Hank Garland - Seventh And Union
TTITLE7=Chet Atkins - Windy And Warm
TTITLE8=Roy Clark - Racing The Mule
TTITLE9=Buddy Emmons - Wichita Lineman
TTITLE10=Buck Owens - Buckaroo
TTITLE11=Bud Isaacs - Bud's Bounce
TTITLE12=Chet Atkins - Tiger Rag
TTITLE13=Roy Clark - Medley: Wildwood Flower, In The Willow Garden, Little Jimm
TTITLE13=y Brown
TTITLE14=Bob Wills and His Texas Playboys - Steel Guitar Rag (Feat. Leon Mcauli
TTITLE14=ffe)
TTITLE15=Marle Travis - Cannonball Rag
TTITLE16=Herb Remington - Remington Ride
TTITLE17=Jerry Reed - Nervous Breakdown
TTITLE18=Jerry Byrd - Hilo March
TTITLE19=Chet Atkins - Oh! By Jingo!, Oh! By Gee! (You're The Only Girl For Me)
TTITLE20=Pete Kirby (Bashful Brother Oswald) - Remember Me
EXTD=
EXTT0=
EXTT1=
EXTT2=
EXTT3=
EXTT4=
EXTT5=
EXTT6=
EXTT7=
EXTT8=
EXTT9=
EXTT10=
EXTT11=
EXTT12=
EXTT13=
EXTT14=
EXTT15=
EXTT16=
EXTT17=
EXTT18=
EXTT19=
EXTT20=
PLAYORDER=
